<?xml version="1.0" encoding="utf-8"?>
<!-- Generator: Adobe Illustrator 25.0.1, SVG Export Plug-In . SVG Version: 6.00 Build 0)  -->
<svg version="1.1" id="Layer_1" xmlns="http://www.w3.org/2000/svg" xmlns:xlink="http://www.w3.org/1999/xlink" x="0px" y="0px"
	 viewBox="0 0 1329.6 293.3" style="enable-background:new 0 0 1329.6 293.3;" xml:space="preserve">
<style type="text/css">
	.st0{fill:#E25439;}
</style>
<path class="st0" d="M219.5,181.5L60.9,215.2c12.3,24,35.8,36.1,62.6,30.4c21.4-4.5,38.2-18.5,43.1-34.1l54.3-11.5
	c-2.9,22.2-12.3,41.6-28.2,58.1c-16,16.8-36.1,27.6-60.3,32.8c-30.6,6.5-58.3,2-83-13.7C24.6,261.5,9,238.8,2.6,209
	c-6.3-29.6-1.3-56.7,14.9-81.1c16.2-24.2,39.7-39.6,70.3-46.1c30.4-6.5,58.1-2,82.8,13.6c24.7,15.7,40.3,38.6,46.7,68.6
	C218.9,171.3,219.5,177.1,219.5,181.5z M97.3,126.4c-12.6,2.7-22.7,8.6-30.5,17.9c-7.8,9.4-12.2,20.6-13,33.5l104.5-22.2
	c-6-11.5-14.6-19.9-25.6-25.3C121.6,125,109.7,123.8,97.3,126.4z"/>
<path class="st0" d="M364,84.5h58.4l-84.8,203.9h-54.1L199.2,84.5h59.2l52.9,138.7L364,84.5z"/>
<path class="st0" d="M621.6,181.6L463,215.3c12.3,24,35.8,36.1,62.6,30.4c21.4-4.5,38.2-18.5,43.1-34.1l54.3-11.5
	c-2.9,22.2-12.3,41.6-28.2,58.1c-16,16.8-36.1,27.6-60.3,32.8c-30.6,6.5-58.3,2-83-13.7c-24.7-15.7-40.3-38.4-46.6-68.2
	c-6.3-29.6-1.3-56.7,14.9-81.1c16.2-24.2,39.7-39.6,70.3-46.1c30.4-6.5,58.1-2,82.8,13.6c24.7,15.7,40.3,38.6,46.7,68.6
	C621,171.3,621.6,177.1,621.6,181.6z M499.4,126.4c-12.6,2.7-22.7,8.6-30.5,17.9c-7.8,9.4-12.2,20.6-13,33.5l104.5-22.2
	c-6-11.5-14.6-19.9-25.6-25.3C523.7,125.1,511.8,123.8,499.4,126.4z"/>
<path class="st0" d="M809.9,101.1c14.7,14.5,21.9,33.6,21.9,57.6v129.7h-52.2V175.5c0-13.9-4.1-24.8-12.1-33.2
	c-8.2-8.2-18.9-12.3-32.2-12.3c-14.5,0-26,4.3-34.8,12.7c-8.8,8.6-13.3,19.9-13.3,33.8v111.9h-52V84.5h52v25.2
	c16-20.1,37.7-30.1,64.9-30.1C776.1,79.6,795.3,86.8,809.9,101.1z"/>
<path class="st0" d="M965.6,84.5v47.5h-41.2v156.5h-52V131.9h-39.3V84.5h39.3V11.3l52-11.3v84.5H965.6z"/>
<path class="st0" d="M1111.2,84.5h52v203.9h-52v-24.8c-15.8,19.7-36.3,29.7-61.9,29.7c-22.9,0-41.4-7.2-55.5-21.5
	c-14.3-14.3-21.3-33.2-21.3-56.7V84.5h52v115.5c0,13.1,3.9,23.4,11.7,31.3c7.6,7.8,17.8,11.7,30.3,11.7c13.3,0,24-4.1,32.4-12.1
	c8.2-8,12.3-18.6,12.3-31.6V84.5z"/>
<path class="st0" d="M1199,274c-14.7-12.7-21.9-28.3-21.9-46.7h52.5c0,6.4,2.3,11.7,7.2,16.2c4.7,4.5,10.4,6.8,17.2,6.8
	c12.7,0,22.7-8.2,22.7-18.4c0-11.1-11.3-19.7-34-25.6c-42-10-62.9-31.3-62.7-64.1c0-19.5,7-35,21.3-46.1
	c14.1-11.1,31.5-16.6,52-16.6c20.9,0,38.3,6.1,52.4,18.2c14.1,12.1,21.1,27,21.1,44.5h-52.4c0-11.1-9.2-19.9-21.5-19.9
	c-11.1,0-20.5,7.6-20.5,16.8c0,11.1,11.9,19.7,35.6,25.6c41,10.4,61.5,31.5,61.7,62.9c0,20.3-7.2,36.3-21.7,48.1
	c-14.7,11.7-32.6,17.6-54.3,17.6C1231.8,293.3,1213.6,286.9,1199,274z"/>
</svg>
